<svg width="800" height="800" viewBox="0 0 800 814" fill="none" xmlns="http://www.w3.org/2000/svg">
<path d="M792.582 462.19C792.572 461.174 792.439 460.154 792.182 459.148C792.15 459.025 792.114 458.906 792.078 458.785C791.971 458.414 791.845 458.047 791.702 457.681C791.653 457.551 791.605 457.424 791.551 457.296C791.377 456.891 791.181 456.493 790.962 456.1C790.931 456.045 790.907 455.985 790.875 455.931C790.603 455.46 790.325 455.054 790.034 454.663C789.966 454.571 789.891 454.486 789.82 454.397C789.568 454.079 789.304 453.774 789.026 453.485C788.936 453.391 788.846 453.3 788.752 453.208C788.437 452.9 788.112 452.608 787.77 452.338C787.712 452.292 787.66 452.242 787.602 452.198C787.188 451.882 786.759 451.592 786.315 451.33C786.249 451.286 602.676 344.34 602.676 344.34V130.404C602.676 130.36 602.667 130.319 602.667 130.275C602.657 129.259 602.524 128.239 602.267 127.233C602.235 127.111 602.199 126.991 602.163 126.871C602.056 126.5 601.93 126.132 601.787 125.766C601.738 125.637 601.69 125.509 601.636 125.381C601.462 124.976 601.266 124.578 601.047 124.185C601.016 124.13 600.992 124.071 600.96 124.016C600.688 123.543 600.41 123.138 600.117 122.746C600.051 122.658 599.978 122.574 599.91 122.488C599.654 122.164 599.387 121.856 599.108 121.565C599.021 121.475 598.935 121.386 598.844 121.3C598.524 120.985 598.191 120.687 597.842 120.411C597.792 120.372 597.746 120.328 597.695 120.29C597.278 119.968 596.844 119.677 596.395 119.412C596.339 119.374 406.426 8.73611 406.426 8.73611C402.453 6.42292 397.546 6.42292 393.573 8.73611L203.661 119.374C203.156 119.677 202.718 119.972 202.298 120.294C202.252 120.329 202.209 120.368 202.163 120.406C201.811 120.685 201.474 120.985 201.151 121.303C201.062 121.39 200.977 121.477 200.89 121.567C200.609 121.86 200.342 122.169 200.087 122.493C200.019 122.58 199.946 122.661 199.879 122.75C199.586 123.141 199.309 123.546 199.057 123.979C199.004 124.074 198.98 124.132 198.95 124.188C198.73 124.581 198.534 124.98 198.361 125.385C198.306 125.511 198.259 125.64 198.209 125.769C198.066 126.134 197.94 126.501 197.833 126.874C197.797 126.995 197.762 127.114 197.731 127.237C197.472 128.243 197.34 129.262 197.331 130.278C197.331 130.321 197.323 130.363 197.323 130.408V344.346L13.7498 451.289C13.2392 451.596 12.8085 451.885 12.3949 452.203C12.3387 452.248 12.286 452.295 12.2298 452.339C11.8877 452.612 11.5609 452.903 11.246 453.211C11.1541 453.301 11.0621 453.393 10.9736 453.487C10.6962 453.776 10.4323 454.081 10.1804 454.399C10.1089 454.489 10.0341 454.574 9.96597 454.666C9.6749 455.056 9.39745 455.461 9.14554 455.892C9.09277 455.987 9.06894 456.045 9.03831 456.101C8.81873 456.494 8.62299 456.893 8.44937 457.298C8.3949 457.424 8.34724 457.553 8.29788 457.682C8.1549 458.047 8.02894 458.414 7.92171 458.787C7.88596 458.908 7.85022 459.027 7.81958 459.15C7.56086 460.156 7.42809 461.175 7.41958 462.191C7.41958 462.234 7.41107 462.277 7.41107 462.321V683.597C7.41107 688.14 9.82639 692.341 13.7515 694.627L203.663 805.265C203.699 805.286 203.738 805.3 203.774 805.32C204.23 805.58 204.701 805.819 205.191 806.023C205.668 806.22 206.148 806.377 206.638 806.515C206.759 806.549 206.882 806.578 207.004 806.608C207.387 806.704 207.777 806.78 208.174 806.84C208.305 806.86 208.432 806.884 208.563 806.9C209.066 806.959 209.573 807 210.09 807C210.608 807 211.117 806.961 211.617 806.9C211.748 806.884 211.876 806.86 212.007 806.84C212.403 806.78 212.793 806.704 213.176 806.608C213.299 806.578 213.421 806.549 213.542 806.515C214.032 806.377 214.512 806.22 214.977 806.028C215.477 805.82 215.949 805.582 216.405 805.32C216.441 805.3 216.48 805.286 216.516 805.265L400 698.37L583.486 805.265C583.522 805.286 583.561 805.3 583.597 805.32C584.053 805.58 584.523 805.819 585.013 806.023C585.491 806.22 585.969 806.377 586.458 806.515C586.58 806.549 586.703 806.58 586.826 806.61C587.209 806.705 587.597 806.782 587.993 806.842C588.124 806.862 588.254 806.886 588.385 806.901C588.887 806.961 589.394 807.002 589.911 807.002C590.429 807.002 590.936 806.962 591.438 806.901C591.569 806.886 591.699 806.862 591.83 806.842C592.225 806.782 592.614 806.705 592.997 806.61C593.12 806.58 593.243 806.551 593.365 806.515C593.854 806.377 594.334 806.22 594.797 806.028C595.3 805.819 595.77 805.58 596.226 805.32C596.262 805.3 596.301 805.286 596.337 805.265L786.249 694.627C790.174 692.339 792.589 688.139 792.589 683.597V462.321C792.589 462.275 792.582 462.234 792.582 462.19ZM754.463 462.319L589.911 558.183L425.36 462.319L589.911 366.455L754.463 462.319ZM222.854 152.615L387.234 248.379V440.106L222.854 344.343V152.615ZM577.146 344.343L412.766 440.108V248.38L577.146 152.617V344.343ZM387.234 676.258L222.854 772.023V580.295L387.234 484.532V676.258ZM412.766 484.53L577.146 580.294V772.021L412.766 676.258V484.53ZM400 34.5404L564.552 130.404L400 226.268L235.449 130.404L400 34.5404ZM210.089 366.455L374.64 462.319L210.089 558.183L45.537 462.319L210.089 366.455ZM32.943 484.53L197.323 580.294V772.021L32.943 676.256V484.53ZM602.677 772.023V580.295L767.057 484.532V676.26L602.677 772.023Z" fill="#5A8FBA" stroke="#5A8FBA" stroke-width="14"/>
</svg>
