<svg width="500" height="500" viewBox="0 0 584 584" fill="none" xmlns="http://www.w3.org/2000/svg">
<path d="M542 150.333H495.333C508.667 134.333 517 114.333 517 92C517 41.3334 476 0.333374 425.333 0.333374C369.333 0.333374 320 30 292 74C264 30 214.667 0.333374 158.667 0.333374C108 0.333374 67 41.3334 67 92C67 114.333 75.3334 134.333 88.6667 150.333H42C19 150.333 0.333374 169 0.333374 192V275.333C0.333374 295.333 14.6667 311.333 33.6667 315.333V542C33.6667 565 52.3334 583.667 75.3334 583.667H508.667C531.667 583.667 550.333 565 550.333 542V315.333C569.333 311.333 583.667 295.333 583.667 275.333V192C583.667 169 565 150.333 542 150.333ZM542 275.333H312V192H542V275.333ZM425.333 43.5C467 43.5 476.5 69 476.5 92C476.5 115 448.333 142.5 425.333 142.5H312C323.333 94.8333 374.333 43.5 425.333 43.5ZM158.667 43.5C209.667 43.5 262.167 94.8333 273.5 142.5H158.667C135.667 142.5 105 115 105 92C105 69 120.5 43.5 158.667 43.5ZM42 192H273.5V275.333H42V192ZM75.3334 315.333H273.5V542H75.3334V315.333ZM508.667 542H312V315.333H508.667V542Z" fill="#5A8FBA"/>
</svg>
