<svg width="584" height="584" viewBox="0 0 686 601" fill="none" xmlns="http://www.w3.org/2000/svg">
<path d="M435.714 400C471.218 400 500 428.782 500 464.286V507.199L499.775 510.298C490.896 571.047 436.329 600.258 344.765 600.258C253.532 600.258 198.094 571.381 186.128 511.331L185.714 507.143V464.286C185.714 428.782 214.496 400 250 400H435.714ZM250 442.857C238.165 442.857 228.571 452.451 228.571 464.286V504.868C236.565 539.165 272.875 557.401 344.765 557.401C416.653 557.401 451.333 539.363 457.143 505.519V464.286C457.143 452.451 447.549 442.857 435.714 442.857H250ZM464.102 228.54L621.429 228.571C656.933 228.571 685.714 257.353 685.714 292.857V335.771L685.489 338.87C676.61 399.618 622.043 428.83 530.48 428.83L521.484 428.733C513.054 408.345 497.574 391.652 478.096 381.643C492.805 384.526 510.231 385.972 530.48 385.972C602.367 385.972 637.047 367.934 642.857 334.09V292.857C642.857 281.022 633.263 271.429 621.429 271.429H471.429C471.429 256.39 468.847 241.954 464.102 228.54ZM64.2857 228.571L221.613 228.54C217.659 239.718 215.206 251.606 214.499 263.961L214.286 271.429H64.2857C52.451 271.429 42.8571 281.022 42.8571 292.857V333.439C50.8512 367.737 87.1608 385.972 159.051 385.972C176.825 385.972 192.324 384.87 205.674 382.698C187.081 392.795 172.342 409.069 164.181 428.759L159.051 428.83C67.8175 428.83 12.38 399.953 0.41322 339.902L0 335.714V292.857C0 257.353 28.7817 228.571 64.2857 228.571ZM342.857 171.429C398.086 171.429 442.857 216.2 442.857 271.429C442.857 326.657 398.086 371.429 342.857 371.429C287.629 371.429 242.857 326.657 242.857 271.429C242.857 216.2 287.629 171.429 342.857 171.429ZM342.857 214.286C311.298 214.286 285.714 239.869 285.714 271.429C285.714 302.988 311.298 328.571 342.857 328.571C374.416 328.571 400 302.988 400 271.429C400 239.869 374.416 214.286 342.857 214.286ZM528.571 0C583.8 0 628.571 44.7715 628.571 100C628.571 155.228 583.8 200 528.571 200C473.343 200 428.571 155.228 428.571 100C428.571 44.7715 473.343 0 528.571 0ZM157.143 0C212.371 0 257.143 44.7715 257.143 100C257.143 155.228 212.371 200 157.143 200C101.914 200 57.1429 155.228 57.1429 100C57.1429 44.7715 101.914 0 157.143 0ZM528.571 42.8571C497.012 42.8571 471.429 68.4409 471.429 100C471.429 131.559 497.012 157.143 528.571 157.143C560.131 157.143 585.714 131.559 585.714 100C585.714 68.4409 560.131 42.8571 528.571 42.8571ZM157.143 42.8571C125.584 42.8571 100 68.4409 100 100C100 131.559 125.584 157.143 157.143 157.143C188.702 157.143 214.286 131.559 214.286 100C214.286 68.4409 188.702 42.8571 157.143 42.8571Z" fill="#5A8FBA"/>
<path d="M435.714 400C471.218 400 500 428.782 500 464.286V507.199L499.775 510.298C490.896 571.047 436.329 600.258 344.765 600.258C253.532 600.258 198.094 571.381 186.128 511.331L185.714 507.143V464.286C185.714 428.782 214.496 400 250 400H435.714ZM250 442.857C238.165 442.857 228.571 452.451 228.571 464.286V504.868C236.565 539.165 272.875 557.401 344.765 557.401C416.653 557.401 451.333 539.363 457.143 505.519V464.286C457.143 452.451 447.549 442.857 435.714 442.857H250ZM464.102 228.54L621.429 228.571C656.933 228.571 685.714 257.353 685.714 292.857V335.771L685.489 338.87C676.61 399.618 622.043 428.83 530.48 428.83L521.484 428.733C513.054 408.345 497.574 391.652 478.096 381.643C492.805 384.526 510.231 385.972 530.48 385.972C602.367 385.972 637.047 367.934 642.857 334.09V292.857C642.857 281.022 633.263 271.429 621.429 271.429H471.429C471.429 256.39 468.847 241.954 464.102 228.54ZM64.2857 228.571L221.613 228.54C217.659 239.718 215.206 251.606 214.499 263.961L214.286 271.429H64.2857C52.451 271.429 42.8571 281.022 42.8571 292.857V333.439C50.8512 367.737 87.1608 385.972 159.051 385.972C176.825 385.972 192.324 384.87 205.674 382.698C187.081 392.795 172.342 409.069 164.181 428.759L159.051 428.83C67.8175 428.83 12.38 399.953 0.41322 339.902L0 335.714V292.857C0 257.353 28.7817 228.571 64.2857 228.571ZM342.857 171.429C398.086 171.429 442.857 216.2 442.857 271.429C442.857 326.657 398.086 371.429 342.857 371.429C287.629 371.429 242.857 326.657 242.857 271.429C242.857 216.2 287.629 171.429 342.857 171.429ZM342.857 214.286C311.298 214.286 285.714 239.869 285.714 271.429C285.714 302.988 311.298 328.571 342.857 328.571C374.416 328.571 400 302.988 400 271.429C400 239.869 374.416 214.286 342.857 214.286ZM528.571 0C583.8 0 628.571 44.7715 628.571 100C628.571 155.228 583.8 200 528.571 200C473.343 200 428.571 155.228 428.571 100C428.571 44.7715 473.343 0 528.571 0ZM157.143 0C212.371 0 257.143 44.7715 257.143 100C257.143 155.228 212.371 200 157.143 200C101.914 200 57.1429 155.228 57.1429 100C57.1429 44.7715 101.914 0 157.143 0ZM528.571 42.8571C497.012 42.8571 471.429 68.4409 471.429 100C471.429 131.559 497.012 157.143 528.571 157.143C560.131 157.143 585.714 131.559 585.714 100C585.714 68.4409 560.131 42.8571 528.571 42.8571ZM157.143 42.8571C125.584 42.8571 100 68.4409 100 100C100 131.559 125.584 157.143 157.143 157.143C188.702 157.143 214.286 131.559 214.286 100C214.286 68.4409 188.702 42.8571 157.143 42.8571Z" stroke="#5A8FBA"/>
</svg>
